<svg width="16" height="15" viewBox="0 0 16 15" fill="none" xmlns="http://www.w3.org/2000/svg">
<path d="M9.28125 1.04614L15.4688 6.95239C15.6445 7.12817 15.75 7.33911 15.75 7.58521C15.75 7.79614 15.6445 8.00708 15.4688 8.18286L9.28125 14.0891C8.96484 14.4055 8.40234 14.4055 8.08594 14.054C7.76953 13.7375 7.76953 13.175 8.12109 12.8586L12.7969 8.42896H0.84375C0.351562 8.42896 0 8.04224 0 7.58521C0 7.09302 0.351562 6.74146 0.84375 6.74146H12.7969L8.12109 2.27661C7.76953 1.96021 7.76953 1.39771 8.08594 1.0813C8.40234 0.729736 8.92969 0.729736 9.28125 1.04614Z" fill="#190F4C"/>
</svg>
