<svg width="23" height="21" viewBox="0 0 23 21" fill="none" xmlns="http://www.w3.org/2000/svg">
<path d="M22.1875 13.6641C22.6953 14.3672 22.5391 15.3438 21.7969 15.8516L16.4844 19.7188C15.8203 20.2266 14.9609 20.5 14.1016 20.5H0.585938C0.273438 20.5 0 20.2266 0 19.875V16.125C0 15.8125 0.273438 15.5 0.585938 15.5L2.73438 15.5391L4.53125 14.0547C5.35156 13.3906 6.44531 13.0391 7.46094 13.0391H13.7109C14.4922 13.0391 15.0781 13.7031 14.9609 14.4844C14.8438 15.1094 14.2578 15.5391 13.6719 15.5391H10.5859C10.3125 15.5391 10 15.8125 10 16.1641C10 16.4766 10.2734 16.7891 10.5859 16.7891H15.3125L20 13.3125C20.7031 12.8047 21.6797 12.9609 22.1875 13.6641ZM10.8984 7.33594C11.5625 7.45312 12.1094 7.33594 12.1484 7.0625C12.1875 6.86719 12.2266 6.78906 10.9766 6.4375L10.7031 6.35938C10 6.125 8.125 5.57812 8.4375 3.66406C8.63281 2.72656 9.29688 2.10156 10.3125 1.86719V1.4375C10.3125 0.929688 10.7031 0.5 11.25 0.5C11.7578 0.5 12.1875 0.929688 12.1875 1.4375V1.90625C12.3828 1.94531 12.6562 2.02344 12.9297 2.10156C13.4375 2.29688 13.6719 2.80469 13.5156 3.3125C13.3594 3.82031 12.8125 4.05469 12.3438 3.89844C11.9922 3.78125 11.7578 3.70312 11.5625 3.66406C10.8984 3.58594 10.3516 3.70312 10.3125 3.97656C10.2734 4.13281 10.2344 4.25 11.25 4.5625L11.4453 4.60156C12.4609 4.91406 14.2969 5.42188 13.9844 7.375C13.8281 8.3125 13.1641 8.9375 12.1875 9.17188V9.5625C12.1875 10.1094 11.7578 10.5 11.25 10.5C10.7031 10.5 10.3125 10.1094 10.3125 9.5625V9.09375C9.92188 9.01562 9.57031 8.89844 9.21875 8.78125L9.02344 8.70312C8.55469 8.54688 8.32031 7.96094 8.47656 7.53125C8.63281 7.0625 9.17969 6.78906 9.6875 6.98438L9.84375 7.0625C10.1953 7.17969 10.5859 7.29688 10.8984 7.33594Z" fill="#765EFF"/>
</svg>
