<svg width="15" height="15" viewBox="0 0 15 15" fill="none" xmlns="http://www.w3.org/2000/svg">
<path d="M14.75 1.90625V12.2188C14.75 12.8203 14.2773 13.25 13.7188 13.25C13.1172 13.25 12.6875 12.8203 12.6875 12.2188V4.39844L2.76172 14.3242C2.54688 14.5391 2.28906 14.625 2.03125 14.625C1.73047 14.625 1.47266 14.5391 1.30078 14.3242C0.871094 13.9375 0.871094 13.293 1.30078 12.9062L11.2266 2.9375H3.40625C2.80469 2.9375 2.375 2.50781 2.375 1.90625C2.375 1.34766 2.80469 0.875 3.40625 0.875H13.7188C14.2773 0.875 14.75 1.34766 14.75 1.90625Z" fill="white"/>
</svg>
