<svg width="64" height="64" viewBox="0 0 64 64" fill="none" xmlns="http://www.w3.org/2000/svg">
<rect width="64" height="64" rx="32" fill="#190F4C"/>
<path fill-rule="evenodd" clip-rule="evenodd" d="M38.9187 20C40.7067 20 42.4267 20.7067 43.692 21.9747C44.9587 23.24 45.6667 24.9467 45.6667 26.7333V37.2667C45.6667 40.9867 42.64 44 38.9187 44H25.7467C22.0253 44 19 40.9867 19 37.2667V26.7333C19 23.0133 22.012 20 25.7467 20H38.9187ZM41.0399 28.7198L41.1466 28.6131C41.4652 28.2265 41.4652 27.6665 41.1319 27.2798C40.9466 27.0811 40.6919 26.9598 40.4266 26.9331C40.1466 26.9185 39.8799 27.0131 39.6786 27.1998L33.6666 31.9998C32.8932 32.6411 31.7852 32.6411 30.9999 31.9998L24.9999 27.1998C24.5852 26.8931 24.0119 26.9331 23.6666 27.2931C23.3066 27.6531 23.2666 28.2265 23.5719 28.6265L23.7466 28.7998L29.8132 33.5331C30.5599 34.1198 31.4652 34.4398 32.4132 34.4398C33.3586 34.4398 34.2799 34.1198 35.0252 33.5331L41.0399 28.7198Z" fill="white"/>
</svg>
