<svg width="35" height="35" viewBox="0 0 35 35" fill="none" xmlns="http://www.w3.org/2000/svg">
<path d="M29.8216 22.3035C28.3135 23.8116 26.3026 24.4303 24.3691 24.2756C24.4851 26.2478 23.8664 28.2586 22.397 29.7281C19.6514 32.4736 15.2044 32.435 12.4975 29.7281C10.9894 28.22 10.332 26.2478 10.4866 24.3143C8.51448 24.4303 6.54232 23.7729 5.07286 22.3035C2.3273 19.5579 2.3273 15.1495 5.07286 12.404C6.54232 10.9345 8.51448 10.2771 10.4866 10.3931C10.332 8.45964 10.9894 6.48747 12.4975 4.97935C15.2044 2.27245 19.6514 2.23378 22.397 4.97935C23.8664 6.4488 24.4851 8.45964 24.3691 10.4318C26.3026 10.2771 28.3135 10.8958 29.8216 12.404C32.5285 15.1109 32.5285 19.5966 29.8216 22.3035ZM14.3536 20.4473C16.0551 22.1488 18.8007 22.1875 20.5408 20.4473C22.2423 18.7458 22.2423 15.9616 20.5408 14.2601C18.8007 12.52 16.0551 12.5586 14.3536 14.2601C12.6135 16.0003 12.6135 18.7072 14.3536 20.4473Z" fill="#765EFF"/>
</svg>
