<svg width="119" height="40" viewBox="0 0 119 40" fill="none" xmlns="http://www.w3.org/2000/svg">
<path d="M31.8177 25.3035C30.3096 26.8116 28.2987 27.4303 26.3652 27.2756C26.4812 29.2478 25.8625 31.2586 24.3931 32.7281C21.6475 35.4736 17.2005 35.435 14.4936 32.7281C12.9854 31.22 12.3281 29.2478 12.4827 27.3143C10.5106 27.4303 8.53841 26.7729 7.06895 25.3035C4.32339 22.5579 4.32339 18.1495 7.06895 15.404C8.53841 13.9345 10.5106 13.2771 12.4827 13.3931C12.3281 11.4596 12.9854 9.48747 14.4936 7.97935C17.2005 5.27245 21.6475 5.23378 24.3931 7.97935C25.8625 9.4488 26.4812 11.4596 26.3652 13.4318C28.2987 13.2771 30.3096 13.8958 31.8177 15.404C34.5246 18.1109 34.5246 22.5966 31.8177 25.3035ZM16.3497 23.4473C18.0512 25.1488 20.7968 25.1875 22.5369 23.4473C24.2384 21.7458 24.2384 18.9616 22.5369 17.2601C20.7968 15.52 18.0512 15.5586 16.3497 17.2601C14.6096 19.0003 14.6096 21.7072 16.3497 23.4473Z" fill="#765EFF"/>
<path d="M43.6016 15.148H47.1536L51.2816 27.948H51.3136L55.4416 15.148H58.9936L53.2016 31.5H49.3936L43.6016 15.148ZM62.4958 12.396C61.5678 12.396 60.6078 11.756 60.6078 10.604C60.6078 9.452 61.5678 8.844 62.4958 8.844C63.4878 8.844 64.4158 9.452 64.4158 10.604C64.4158 11.756 63.4878 12.396 62.4958 12.396ZM60.8318 15.148H64.1918V31.5H60.8318V15.148ZM74.9678 31.98C69.8478 31.98 66.7438 28.428 66.7438 23.34C66.7438 18.252 69.8478 14.7 74.9678 14.7C80.0878 14.7 83.1918 18.252 83.1918 23.34C83.1918 28.428 80.0878 31.98 74.9678 31.98ZM74.9678 29.228C78.1678 29.228 79.8318 26.7 79.8318 23.34C79.8318 19.948 78.1678 17.452 74.9678 17.452C71.7678 17.452 70.1038 19.948 70.1038 23.34C70.1038 26.7 71.7678 29.228 74.9678 29.228ZM85.5781 8.62H88.9701V31.5H85.5781V8.62ZM99.4648 29.228C102.249 29.228 103.369 27.5 103.657 26.508H107.017C106.185 29.612 103.753 31.98 99.5608 31.98C94.4728 31.98 91.3688 28.46 91.3688 23.34C91.3688 18.028 94.4728 14.7 99.4008 14.7C104.681 14.7 107.273 18.38 107.273 24.204H94.7288C94.7288 26.956 96.4888 29.228 99.4648 29.228ZM99.4008 17.356C96.6808 17.356 94.7288 19.18 94.7288 21.708H103.913C103.913 19.18 102.121 17.356 99.4008 17.356ZM117.072 17.9H114V26.764C114 28.62 114.896 28.844 117.072 28.716V31.468C116.4 31.628 115.664 31.724 114.768 31.724C112.08 31.724 110.608 30.508 110.608 27.052V17.9H108.24V15.148H110.608V9.996H114V15.148H117.072V17.9Z" fill="#190F4C"/>
</svg>
