<svg width="64" height="64" viewBox="0 0 64 64" fill="none" xmlns="http://www.w3.org/2000/svg">
<rect width="64" height="64" rx="32" fill="#190F4C"/>
<path d="M39.4002 34.855C38.5941 34.6817 37.9565 35.0559 37.3919 35.3827C36.8137 35.7195 35.7142 36.6114 35.084 36.3832C31.8573 35.0546 28.8226 32.2304 27.5089 28.9908C27.2773 28.3472 28.1651 27.2407 28.4994 26.6556C28.8238 26.0893 29.1903 25.4456 29.0231 24.6336C28.8721 23.9038 26.9183 21.4177 26.2274 20.7378C25.7717 20.2887 25.3049 20.0417 24.8258 20.0018C23.0242 19.9245 21.0122 22.3283 20.6593 22.9034C19.7753 24.1296 19.7802 25.7612 20.6742 27.7397C22.8286 33.0537 30.977 41.0735 36.311 43.3089C37.2953 43.7692 38.1955 44 39.004 44C39.7952 44 40.4997 43.7792 41.1051 43.3414C41.562 43.0781 44.0644 40.9662 43.9987 39.1163C43.9591 38.6448 43.7127 38.1732 43.2695 37.7167C42.5947 37.0193 40.1245 35.0072 39.4002 34.855Z" fill="white"/>
</svg>
