<svg width="242" height="44" viewBox="0 0 242 44" fill="none" xmlns="http://www.w3.org/2000/svg">
<path d="M77.7142 39.3087C74.2305 39.3087 71.1512 38.6244 68.4763 37.2558C65.8013 35.8561 63.7329 33.881 62.271 31.3305C60.8091 28.7799 60.0781 25.7784 60.0781 22.3258C60.0781 18.8733 60.8091 15.8717 62.271 13.3212C63.7329 10.7395 65.8013 8.7644 68.4763 7.39582C71.1512 5.99613 74.2305 5.29629 77.7142 5.29629C80.0781 5.29629 82.1621 5.54512 83.9661 6.04279C85.8013 6.50935 87.4809 7.25585 89.005 8.28229V15.0474C87.6364 13.9277 86.0657 13.119 84.2927 12.6213C82.5509 12.0926 80.5602 11.8282 78.3207 11.8282C76.2367 11.8282 74.3549 12.2636 72.6753 13.1345C71.0268 13.9744 69.7204 15.1874 68.7562 16.7737C67.792 18.36 67.3098 20.2107 67.3098 22.3258C67.3098 24.472 67.7453 26.3538 68.6162 27.9712C69.5182 29.5575 70.778 30.7862 72.3954 31.6571C74.0128 32.528 75.879 32.9634 77.9941 32.9634C79.9226 32.9634 81.6022 32.6213 83.033 31.937V25.6384H77.7609V20.4129H89.8915V36.1361C86.8122 38.2512 82.7531 39.3087 77.7142 39.3087Z" fill="#190F4C"/>
<path d="M91.5292 16.2139H98.341V19.4331C99.243 18.3445 100.503 17.5202 102.12 16.9604C103.738 16.3694 105.573 16.0739 107.626 16.0739V21.4394C105.479 21.4394 103.582 21.7659 101.934 22.4191C100.316 23.0723 99.1964 24.0677 98.5743 25.4051V38.6089H91.5292V16.2139Z" fill="#190F4C"/>
<path d="M121.164 39.3087C116.872 39.3087 113.497 38.2823 111.04 36.2294C108.583 34.1454 107.354 31.2372 107.354 27.5047C107.354 23.8033 108.443 20.8795 110.62 18.7333C112.828 16.5871 115.97 15.514 120.045 15.514C122.72 15.514 124.99 16.0117 126.856 17.007C128.723 18.0023 130.138 19.3865 131.102 21.1594C132.066 22.9012 132.548 24.8764 132.548 27.0848V29.9308H114.073C114.57 32.7924 117.245 34.2232 122.097 34.2232C123.528 34.2232 125.006 34.0988 126.53 33.8499C128.054 33.6011 129.376 33.2589 130.496 32.8235V37.769C129.407 38.2356 128.007 38.6089 126.296 38.8888C124.586 39.1687 122.875 39.3087 121.164 39.3087ZM125.877 25.3585C125.783 23.8655 125.223 22.7146 124.197 21.9059C123.171 21.0661 121.755 20.6462 119.951 20.6462C118.178 20.6462 116.779 21.0661 115.752 21.9059C114.726 22.7457 114.166 23.8966 114.073 25.3585H125.877Z" fill="#190F4C"/>
<path d="M146.989 39.3087C142.697 39.3087 139.322 38.2823 136.865 36.2294C134.408 34.1454 133.179 31.2372 133.179 27.5047C133.179 23.8033 134.268 20.8795 136.445 18.7333C138.653 16.5871 141.795 15.514 145.87 15.514C148.544 15.514 150.815 16.0117 152.681 17.007C154.548 18.0023 155.963 19.3865 156.927 21.1594C157.891 22.9012 158.373 24.8764 158.373 27.0848V29.9308H139.898C140.395 32.7924 143.07 34.2232 147.922 34.2232C149.353 34.2232 150.831 34.0988 152.355 33.8499C153.879 33.6011 155.201 33.2589 156.321 32.8235V37.769C155.232 38.2356 153.832 38.6089 152.121 38.8888C150.411 39.1687 148.7 39.3087 146.989 39.3087ZM151.702 25.3585C151.608 23.8655 151.048 22.7146 150.022 21.9059C148.995 21.0661 147.58 20.6462 145.776 20.6462C144.003 20.6462 142.604 21.0661 141.577 21.9059C140.551 22.7457 139.991 23.8966 139.898 25.3585H151.702Z" fill="#190F4C"/>
<path d="M159.937 16.2139H166.749V18.9666C167.775 17.8157 168.988 16.9604 170.388 16.4005C171.819 15.8095 173.312 15.514 174.867 15.514C177.915 15.514 180.186 16.3383 181.679 17.9868C183.203 19.6042 183.965 21.7971 183.965 24.5653V38.6089H176.92V25.3585C176.92 22.4658 175.583 21.0194 172.908 21.0194C171.726 21.0194 170.621 21.3149 169.595 21.9059C168.569 22.4658 167.698 23.3056 166.982 24.4254V38.6089H159.937V16.2139Z" fill="#190F4C"/>
<path d="M190.181 12.7613C189.093 12.7613 188.175 12.4036 187.429 11.6882C186.682 10.9728 186.309 10.0708 186.309 8.98213C186.309 7.92459 186.682 7.03812 187.429 6.32273C188.175 5.57623 189.093 5.20298 190.181 5.20298C191.27 5.20298 192.188 5.57623 192.934 6.32273C193.681 7.03812 194.054 7.92459 194.054 8.98213C194.054 10.0708 193.681 10.9728 192.934 11.6882C192.188 12.4036 191.27 12.7613 190.181 12.7613ZM186.635 16.2139H193.727V38.6089H186.635V16.2139Z" fill="#190F4C"/>
<path d="M205.743 39.3087C204.063 39.3087 202.259 39.1221 200.331 38.7488C198.433 38.4067 196.94 37.909 195.852 37.2558V31.7504C197.096 32.4969 198.589 33.1034 200.331 33.57C202.072 34.0365 203.69 34.2698 205.183 34.2698C206.458 34.2698 207.391 34.161 207.982 33.9432C208.573 33.7255 208.869 33.3211 208.869 32.7302C208.869 32.2636 208.698 31.8904 208.355 31.6104C208.013 31.2994 207.484 31.035 206.769 30.8173C206.085 30.5684 204.934 30.2107 203.317 29.7442C201.419 29.1843 199.926 28.6244 198.838 28.0645C197.78 27.4736 196.971 26.7426 196.411 25.8717C195.883 25.0008 195.618 23.881 195.618 22.5124C195.618 20.1796 196.536 18.4378 198.371 17.2869C200.237 16.105 202.757 15.514 205.929 15.514C207.484 15.514 209.086 15.6851 210.735 16.0272C212.414 16.3383 213.705 16.7582 214.607 17.2869V22.6524C213.705 22.0614 212.523 21.5793 211.061 21.2061C209.631 20.8328 208.231 20.6462 206.862 20.6462C205.587 20.6462 204.592 20.7706 203.876 21.0194C203.192 21.2683 202.85 21.7348 202.85 22.4191C202.85 23.0101 203.177 23.4611 203.83 23.7722C204.514 24.0832 205.774 24.472 207.609 24.9386L208.542 25.1719C210.502 25.7006 212.026 26.2916 213.114 26.9448C214.203 27.5669 214.965 28.3289 215.4 29.2309C215.867 30.1019 216.1 31.2061 216.1 32.5435C216.1 34.5964 215.214 36.2449 213.441 37.4891C211.668 38.7022 209.102 39.3087 205.743 39.3087Z" fill="#190F4C"/>
<path d="M217.729 4.12988H224.774V18.7799C225.832 17.6913 227.029 16.8826 228.367 16.3538C229.704 15.7939 231.135 15.514 232.659 15.514C235.707 15.514 237.978 16.3383 239.471 17.9868C240.995 19.6042 241.757 21.7971 241.757 24.5653V38.6089H234.712V25.3585C234.712 22.4658 233.374 21.0194 230.699 21.0194C229.517 21.0194 228.413 21.3149 227.387 21.9059C226.36 22.4658 225.489 23.3056 224.774 24.4254V38.6089H217.729V4.12988Z" fill="#190F4C"/>
<path fill-rule="evenodd" clip-rule="evenodd" d="M36.0374 10.7309C36.0374 16.6575 31.233 21.4619 25.3065 21.4619C19.38 21.4619 14.5756 16.6575 14.5756 10.7309C14.5756 4.8044 19.38 0 25.3065 0C31.233 0 36.0374 4.8044 36.0374 10.7309ZM0.327996 20.6825C12.0191 19.8945 22.2083 28.6476 23.1573 40.3634C23.2557 41.5774 23.2509 42.776 23.1505 43.9506C11.4594 44.7387 1.27026 35.9856 0.321209 24.2697C0.222864 23.0557 0.227567 21.8571 0.327996 20.6825ZM30.707 43.5404C42.4228 42.5914 51.1759 32.4023 50.3878 20.7112C49.2133 20.6108 48.0147 20.6061 46.8006 20.7044C35.0848 21.6535 26.3317 31.8426 27.1198 43.5337C28.2943 43.6341 29.4929 43.6388 30.707 43.5404Z" fill="#190F4C"/>
</svg>
